<mxfile host="app.diagrams.net" modified="2023-04-20T14:36:48.296Z" agent="Mozilla/5.0 (Windows NT 10.0; Win64; x64) AppleWebKit/537.36 (KHTML, like Gecko) Chrome/112.0.0.0 Safari/537.36" etag="SkPOnSbdgx-R-EeG9yto" version="21.2.1" type="google">
  <diagram name="Page-1" id="SQuTriHJMnQh-dCwzMq0">
    <mxGraphModel grid="1" page="1" gridSize="10" guides="1" tooltips="1" connect="1" arrows="1" fold="1" pageScale="1" pageWidth="850" pageHeight="1100" math="0" shadow="0">
      <root>
        <mxCell id="0" />
        <mxCell id="1" parent="0" />
        <mxCell id="WGQvhc5uUAFtp1R7Edgi-1" value="" style="rounded=0;whiteSpace=wrap;html=1;" vertex="1" parent="1">
          <mxGeometry x="20" y="-50" width="730" height="1090" as="geometry" />
        </mxCell>
        <mxCell id="WGQvhc5uUAFtp1R7Edgi-2" value="&lt;b&gt;&lt;font style=&quot;font-size: 12px;&quot;&gt;Login&lt;/font&gt;&lt;/b&gt;" style="ellipse;whiteSpace=wrap;html=1;" vertex="1" parent="1">
          <mxGeometry x="317.5" y="80" width="135" height="90" as="geometry" />
        </mxCell>
        <mxCell id="WGQvhc5uUAFtp1R7Edgi-3" value="&lt;font style=&quot;font-size: 12px;&quot;&gt;Verify Credentails&lt;/font&gt;" style="ellipse;whiteSpace=wrap;html=1;" vertex="1" parent="1">
          <mxGeometry x="567.5" y="10" width="170" height="50" as="geometry" />
        </mxCell>
        <mxCell id="WGQvhc5uUAFtp1R7Edgi-4" value="&lt;b&gt;Device Admin&lt;/b&gt;" style="shape=umlActor;verticalLabelPosition=bottom;verticalAlign=top;html=1;outlineConnect=0;" vertex="1" parent="1">
          <mxGeometry x="-330" y="380" width="70" height="110" as="geometry" />
        </mxCell>
        <mxCell id="WGQvhc5uUAFtp1R7Edgi-7" value="&lt;b&gt;Super Admin&lt;/b&gt;" style="shape=umlActor;verticalLabelPosition=bottom;verticalAlign=top;html=1;outlineConnect=0;" vertex="1" parent="1">
          <mxGeometry x="1020" y="365" width="80" height="140" as="geometry" />
        </mxCell>
        <mxCell id="WGQvhc5uUAFtp1R7Edgi-12" value="&lt;font style=&quot;font-size: 12px;&quot;&gt;Form Validation&lt;/font&gt;" style="ellipse;whiteSpace=wrap;html=1;" vertex="1" parent="1">
          <mxGeometry x="567.5" y="70" width="170" height="50" as="geometry" />
        </mxCell>
        <mxCell id="WGQvhc5uUAFtp1R7Edgi-13" value="Display Error Message" style="ellipse;whiteSpace=wrap;html=1;" vertex="1" parent="1">
          <mxGeometry x="567.5" y="140" width="170" height="50" as="geometry" />
        </mxCell>
        <mxCell id="WGQvhc5uUAFtp1R7Edgi-16" value="" style="endArrow=classic;html=1;rounded=0;entryX=0;entryY=0.5;entryDx=0;entryDy=0;dashed=1;exitX=0.5;exitY=0;exitDx=0;exitDy=0;" edge="1" parent="1" source="WGQvhc5uUAFtp1R7Edgi-2" target="WGQvhc5uUAFtp1R7Edgi-3">
          <mxGeometry relative="1" as="geometry">
            <mxPoint x="250" y="260" as="sourcePoint" />
            <mxPoint x="410" y="260" as="targetPoint" />
          </mxGeometry>
        </mxCell>
        <mxCell id="WGQvhc5uUAFtp1R7Edgi-17" value="&lt;font style=&quot;font-size: 12px;&quot;&gt;&amp;lt;&amp;lt;include&amp;gt;&amp;gt;&lt;/font&gt;" style="edgeLabel;resizable=0;html=1;align=center;verticalAlign=middle;" connectable="0" vertex="1" parent="WGQvhc5uUAFtp1R7Edgi-16">
          <mxGeometry relative="1" as="geometry" />
        </mxCell>
        <mxCell id="WGQvhc5uUAFtp1R7Edgi-19" value="" style="endArrow=classic;html=1;rounded=0;entryX=0;entryY=0.5;entryDx=0;entryDy=0;dashed=1;exitX=1;exitY=0;exitDx=0;exitDy=0;" edge="1" parent="1" source="WGQvhc5uUAFtp1R7Edgi-2" target="WGQvhc5uUAFtp1R7Edgi-12">
          <mxGeometry relative="1" as="geometry">
            <mxPoint x="285" y="320" as="sourcePoint" />
            <mxPoint x="420" y="175" as="targetPoint" />
          </mxGeometry>
        </mxCell>
        <mxCell id="WGQvhc5uUAFtp1R7Edgi-20" value="&lt;font style=&quot;font-size: 12px;&quot;&gt;&amp;lt;&amp;lt;include&amp;gt;&amp;gt;&lt;/font&gt;" style="edgeLabel;resizable=0;html=1;align=center;verticalAlign=middle;" connectable="0" vertex="1" parent="WGQvhc5uUAFtp1R7Edgi-19">
          <mxGeometry relative="1" as="geometry" />
        </mxCell>
        <mxCell id="WGQvhc5uUAFtp1R7Edgi-21" value="" style="endArrow=classic;html=1;rounded=0;entryX=1;entryY=0.5;entryDx=0;entryDy=0;dashed=1;exitX=0;exitY=0.5;exitDx=0;exitDy=0;" edge="1" parent="1" source="WGQvhc5uUAFtp1R7Edgi-13" target="WGQvhc5uUAFtp1R7Edgi-2">
          <mxGeometry relative="1" as="geometry">
            <mxPoint x="285" y="320" as="sourcePoint" />
            <mxPoint x="420" y="235" as="targetPoint" />
          </mxGeometry>
        </mxCell>
        <mxCell id="WGQvhc5uUAFtp1R7Edgi-22" value="&lt;font style=&quot;font-size: 12px;&quot;&gt;&amp;lt;&amp;lt;extend&amp;gt;&amp;gt;&lt;/font&gt;" style="edgeLabel;resizable=0;html=1;align=center;verticalAlign=middle;" connectable="0" vertex="1" parent="WGQvhc5uUAFtp1R7Edgi-21">
          <mxGeometry relative="1" as="geometry" />
        </mxCell>
        <mxCell id="WGQvhc5uUAFtp1R7Edgi-24" value="&lt;font style=&quot;font-size: 14px;&quot;&gt;&lt;b&gt;Human Elephant Conflicts Mitigation System (HECMS)&lt;/b&gt;&lt;/font&gt;" style="text;html=1;strokeColor=none;fillColor=none;align=center;verticalAlign=middle;whiteSpace=wrap;rounded=0;" vertex="1" parent="1">
          <mxGeometry x="202.5" y="-40" width="365" height="30" as="geometry" />
        </mxCell>
        <mxCell id="WGQvhc5uUAFtp1R7Edgi-25" value="" style="endArrow=none;html=1;rounded=0;exitX=0;exitY=0.041;exitDx=0;exitDy=0;exitPerimeter=0;" edge="1" parent="1" source="WGQvhc5uUAFtp1R7Edgi-1">
          <mxGeometry width="50" height="50" relative="1" as="geometry">
            <mxPoint x="310" y="80" as="sourcePoint" />
            <mxPoint x="760" as="targetPoint" />
          </mxGeometry>
        </mxCell>
        <mxCell id="WGQvhc5uUAFtp1R7Edgi-31" value="&lt;b&gt;Create New Device Admin&lt;/b&gt;" style="ellipse;whiteSpace=wrap;html=1;" vertex="1" parent="1">
          <mxGeometry x="317.5" y="210" width="135" height="90" as="geometry" />
        </mxCell>
        <mxCell id="WGQvhc5uUAFtp1R7Edgi-43" value="&lt;b&gt;Edit Device Admin Details&lt;/b&gt;" style="ellipse;whiteSpace=wrap;html=1;" vertex="1" parent="1">
          <mxGeometry x="317.5" y="450" width="135" height="90" as="geometry" />
        </mxCell>
        <mxCell id="WGQvhc5uUAFtp1R7Edgi-60" value="&lt;b&gt;Delete Device Admin&lt;/b&gt;" style="ellipse;whiteSpace=wrap;html=1;" vertex="1" parent="1">
          <mxGeometry x="317.5" y="320" width="135" height="90" as="geometry" />
        </mxCell>
        <mxCell id="WGQvhc5uUAFtp1R7Edgi-62" value="&lt;b&gt;Retrive Detection&lt;br&gt;&amp;nbsp;Data&lt;/b&gt;" style="ellipse;whiteSpace=wrap;html=1;" vertex="1" parent="1">
          <mxGeometry x="317.5" y="730" width="135" height="90" as="geometry" />
        </mxCell>
        <mxCell id="WGQvhc5uUAFtp1R7Edgi-66" value="&lt;b&gt;Upload Detection&lt;br&gt;&amp;nbsp;Data&lt;/b&gt;" style="ellipse;whiteSpace=wrap;html=1;" vertex="1" parent="1">
          <mxGeometry x="317.5" y="590" width="135" height="90" as="geometry" />
        </mxCell>
        <mxCell id="WGQvhc5uUAFtp1R7Edgi-72" value="&lt;b&gt;Change Passowrd&lt;/b&gt;" style="ellipse;whiteSpace=wrap;html=1;" vertex="1" parent="1">
          <mxGeometry x="317.5" y="870" width="135" height="90" as="geometry" />
        </mxCell>
        <mxCell id="WGQvhc5uUAFtp1R7Edgi-75" value="." style="text;html=1;strokeColor=none;fillColor=none;align=center;verticalAlign=middle;whiteSpace=wrap;rounded=0;" vertex="1" parent="1">
          <mxGeometry x="355" y="-80" width="60" height="30" as="geometry" />
        </mxCell>
        <mxCell id="WGQvhc5uUAFtp1R7Edgi-76" value="." style="text;html=1;strokeColor=none;fillColor=none;align=center;verticalAlign=middle;whiteSpace=wrap;rounded=0;" vertex="1" parent="1">
          <mxGeometry x="1090" y="410" width="60" height="30" as="geometry" />
        </mxCell>
        <mxCell id="WGQvhc5uUAFtp1R7Edgi-77" value="." style="text;html=1;strokeColor=none;fillColor=none;align=center;verticalAlign=middle;whiteSpace=wrap;rounded=0;" vertex="1" parent="1">
          <mxGeometry x="-390" y="420" width="60" height="30" as="geometry" />
        </mxCell>
        <mxCell id="WGQvhc5uUAFtp1R7Edgi-78" value="." style="text;html=1;strokeColor=none;fillColor=none;align=center;verticalAlign=middle;whiteSpace=wrap;rounded=0;" vertex="1" parent="1">
          <mxGeometry x="350" y="1050" width="60" height="30" as="geometry" />
        </mxCell>
        <mxCell id="qCikKtYp1vRJfIA5xnej-3" value="" style="endArrow=none;html=1;rounded=0;exitX=1;exitY=0.3333333333333333;exitDx=0;exitDy=0;exitPerimeter=0;entryX=0;entryY=0.5;entryDx=0;entryDy=0;" edge="1" parent="1" source="WGQvhc5uUAFtp1R7Edgi-4" target="WGQvhc5uUAFtp1R7Edgi-2">
          <mxGeometry width="50" height="50" relative="1" as="geometry">
            <mxPoint x="130" y="320" as="sourcePoint" />
            <mxPoint x="180" y="270" as="targetPoint" />
          </mxGeometry>
        </mxCell>
        <mxCell id="qCikKtYp1vRJfIA5xnej-5" value="" style="endArrow=none;html=1;rounded=0;entryX=0;entryY=0.5;entryDx=0;entryDy=0;exitX=1;exitY=0.3333333333333333;exitDx=0;exitDy=0;exitPerimeter=0;" edge="1" parent="1" source="WGQvhc5uUAFtp1R7Edgi-4" target="WGQvhc5uUAFtp1R7Edgi-43">
          <mxGeometry width="50" height="50" relative="1" as="geometry">
            <mxPoint x="100" y="470" as="sourcePoint" />
            <mxPoint x="150" y="420" as="targetPoint" />
          </mxGeometry>
        </mxCell>
        <mxCell id="qCikKtYp1vRJfIA5xnej-6" value="" style="endArrow=none;html=1;rounded=0;entryX=0;entryY=0.5;entryDx=0;entryDy=0;exitX=1;exitY=0.3333333333333333;exitDx=0;exitDy=0;exitPerimeter=0;" edge="1" parent="1" source="WGQvhc5uUAFtp1R7Edgi-4" target="WGQvhc5uUAFtp1R7Edgi-66">
          <mxGeometry width="50" height="50" relative="1" as="geometry">
            <mxPoint x="-260" y="720" as="sourcePoint" />
            <mxPoint x="-210" y="670" as="targetPoint" />
          </mxGeometry>
        </mxCell>
        <mxCell id="qCikKtYp1vRJfIA5xnej-7" value="" style="endArrow=none;html=1;rounded=0;entryX=0;entryY=0.5;entryDx=0;entryDy=0;exitX=1;exitY=0.3333333333333333;exitDx=0;exitDy=0;exitPerimeter=0;" edge="1" parent="1" source="WGQvhc5uUAFtp1R7Edgi-4" target="WGQvhc5uUAFtp1R7Edgi-62">
          <mxGeometry width="50" height="50" relative="1" as="geometry">
            <mxPoint x="-250" y="850" as="sourcePoint" />
            <mxPoint x="-200" y="800" as="targetPoint" />
          </mxGeometry>
        </mxCell>
        <mxCell id="qCikKtYp1vRJfIA5xnej-8" value="" style="endArrow=none;html=1;rounded=0;entryX=0;entryY=0.5;entryDx=0;entryDy=0;exitX=1;exitY=0.3333333333333333;exitDx=0;exitDy=0;exitPerimeter=0;" edge="1" parent="1" source="WGQvhc5uUAFtp1R7Edgi-4" target="WGQvhc5uUAFtp1R7Edgi-72">
          <mxGeometry width="50" height="50" relative="1" as="geometry">
            <mxPoint x="120" y="920" as="sourcePoint" />
            <mxPoint x="170" y="870" as="targetPoint" />
          </mxGeometry>
        </mxCell>
        <mxCell id="qCikKtYp1vRJfIA5xnej-9" value="" style="endArrow=none;html=1;rounded=0;entryX=1;entryY=1;entryDx=0;entryDy=0;exitX=0;exitY=0.3333333333333333;exitDx=0;exitDy=0;exitPerimeter=0;" edge="1" parent="1" source="WGQvhc5uUAFtp1R7Edgi-7" target="WGQvhc5uUAFtp1R7Edgi-2">
          <mxGeometry width="50" height="50" relative="1" as="geometry">
            <mxPoint x="1460" y="210" as="sourcePoint" />
            <mxPoint x="1510" y="160" as="targetPoint" />
          </mxGeometry>
        </mxCell>
        <mxCell id="qCikKtYp1vRJfIA5xnej-10" value="" style="endArrow=none;html=1;rounded=0;exitX=1;exitY=0.5;exitDx=0;exitDy=0;entryX=0;entryY=0.3333333333333333;entryDx=0;entryDy=0;entryPerimeter=0;" edge="1" parent="1" source="WGQvhc5uUAFtp1R7Edgi-31" target="WGQvhc5uUAFtp1R7Edgi-7">
          <mxGeometry width="50" height="50" relative="1" as="geometry">
            <mxPoint x="1080" y="350" as="sourcePoint" />
            <mxPoint x="1130" y="300" as="targetPoint" />
          </mxGeometry>
        </mxCell>
        <mxCell id="qCikKtYp1vRJfIA5xnej-11" value="" style="endArrow=none;html=1;rounded=0;exitX=1;exitY=0.5;exitDx=0;exitDy=0;entryX=0;entryY=0.3333333333333333;entryDx=0;entryDy=0;entryPerimeter=0;" edge="1" parent="1" source="WGQvhc5uUAFtp1R7Edgi-60" target="WGQvhc5uUAFtp1R7Edgi-7">
          <mxGeometry width="50" height="50" relative="1" as="geometry">
            <mxPoint x="1110" y="280" as="sourcePoint" />
            <mxPoint x="1160" y="230" as="targetPoint" />
          </mxGeometry>
        </mxCell>
        <mxCell id="qCikKtYp1vRJfIA5xnej-13" value="" style="endArrow=none;html=1;rounded=0;entryX=0;entryY=0.3333333333333333;entryDx=0;entryDy=0;entryPerimeter=0;exitX=1;exitY=0.5;exitDx=0;exitDy=0;" edge="1" parent="1" source="WGQvhc5uUAFtp1R7Edgi-43" target="WGQvhc5uUAFtp1R7Edgi-7">
          <mxGeometry width="50" height="50" relative="1" as="geometry">
            <mxPoint x="990" y="690" as="sourcePoint" />
            <mxPoint x="1040" y="640" as="targetPoint" />
          </mxGeometry>
        </mxCell>
        <mxCell id="qCikKtYp1vRJfIA5xnej-14" value="" style="endArrow=none;html=1;rounded=0;entryX=0;entryY=0.3333333333333333;entryDx=0;entryDy=0;entryPerimeter=0;exitX=1;exitY=0.5;exitDx=0;exitDy=0;" edge="1" parent="1" source="WGQvhc5uUAFtp1R7Edgi-62" target="WGQvhc5uUAFtp1R7Edgi-7">
          <mxGeometry width="50" height="50" relative="1" as="geometry">
            <mxPoint x="1160" y="650" as="sourcePoint" />
            <mxPoint x="1210" y="600" as="targetPoint" />
          </mxGeometry>
        </mxCell>
        <mxCell id="qCikKtYp1vRJfIA5xnej-15" value="" style="endArrow=none;html=1;rounded=0;entryX=0;entryY=0.3333333333333333;entryDx=0;entryDy=0;entryPerimeter=0;exitX=1;exitY=0.5;exitDx=0;exitDy=0;" edge="1" parent="1" source="WGQvhc5uUAFtp1R7Edgi-72" target="WGQvhc5uUAFtp1R7Edgi-7">
          <mxGeometry width="50" height="50" relative="1" as="geometry">
            <mxPoint x="1200" y="900" as="sourcePoint" />
            <mxPoint x="1250" y="850" as="targetPoint" />
          </mxGeometry>
        </mxCell>
      </root>
    </mxGraphModel>
  </diagram>
</mxfile>
